<svg width="344.2" height="95.6" viewBox="0 0 344.2 95.6" xmlns="http://www.w3.org/2000/svg"><g id="svgGroup" stroke-linecap="round" fill-rule="evenodd" font-size="9pt" stroke="#000" stroke-width="0.25mm" fill="#000" style="stroke:#000;stroke-width:0.25mm;fill:#000"><path d="M 298.8 71.4 L 288.7 71.4 L 274 22.4 L 284.6 22.4 L 294 61.5 L 304.4 23.9 L 313.7 23.9 L 324.2 61.5 L 333.6 22.4 L 344.2 22.4 L 329.4 71.4 L 319.3 71.4 L 309.1 35.2 L 298.8 71.4 Z M 0 68.3 L 1.3 58.2 A 54.69 54.69 0 0 0 3.483 59.189 Q 4.703 59.712 6.094 60.249 A 102.983 102.983 0 0 0 7.825 60.9 A 58.214 58.214 0 0 0 13.38 62.613 A 68.82 68.82 0 0 0 16.1 63.25 Q 20.55 64.2 25.1 64.2 Q 29.889 64.2 33.281 62.954 A 13.793 13.793 0 0 0 35.825 61.725 A 8.055 8.055 0 0 0 39.66 55.871 A 12.018 12.018 0 0 0 39.8 54 Q 39.8 50.05 37.8 47.525 Q 35.8 45 31.775 43.2 A 59.046 59.046 0 0 0 28.471 41.85 Q 26.976 41.288 25.283 40.725 A 119.015 119.015 0 0 0 21.7 39.6 Q 15.95 37.9 11.1 35.575 A 21.948 21.948 0 0 1 6.019 32.25 A 19.217 19.217 0 0 1 3.325 29.325 Q 0.754 25.876 0.443 20.437 A 26.893 26.893 0 0 1 0.4 18.9 A 18.188 18.188 0 0 1 1.4 12.797 A 16.494 16.494 0 0 1 3.275 9.075 Q 6.15 4.8 11.725 2.4 A 27.379 27.379 0 0 1 17.401 0.698 Q 20.125 0.175 23.263 0.044 A 51.333 51.333 0 0 1 25.4 0 Q 32.3 0 38.075 1.5 A 74.181 74.181 0 0 1 42.121 2.667 Q 44.056 3.289 45.69 3.956 A 34.851 34.851 0 0 1 47.6 4.8 L 46.6 14.9 A 53.755 53.755 0 0 0 41.372 12.141 Q 38.474 10.821 35.725 10.05 Q 30.55 8.6 25 8.6 A 27.145 27.145 0 0 0 20.686 8.924 Q 17.341 9.463 14.825 10.9 A 7.563 7.563 0 0 0 10.979 16.336 A 11.344 11.344 0 0 0 10.8 18.4 A 11.13 11.13 0 0 0 11.073 20.934 A 7.824 7.824 0 0 0 12.6 24.125 A 10.985 10.985 0 0 0 14.631 26.038 Q 15.641 26.784 16.914 27.433 A 21.395 21.395 0 0 0 17.95 27.925 A 54.992 54.992 0 0 0 20.859 29.11 Q 23.488 30.1 26.8 31.1 Q 34.1 33.3 39.35 36.125 A 25.981 25.981 0 0 1 43.718 39.046 A 19.602 19.602 0 0 1 47.4 43.075 A 15.79 15.79 0 0 1 49.773 48.836 A 22.188 22.188 0 0 1 50.2 53.3 A 20.469 20.469 0 0 1 49.663 58.074 A 17.061 17.061 0 0 1 48.5 61.4 A 16.241 16.241 0 0 1 43.831 67.217 A 19.108 19.108 0 0 1 43.4 67.55 A 20.933 20.933 0 0 1 39.305 69.919 Q 37.28 70.817 34.875 71.45 A 38.504 38.504 0 0 1 29.691 72.419 Q 27.13 72.729 24.248 72.787 A 66.941 66.941 0 0 1 22.9 72.8 Q 18.55 72.8 14.2 72.15 A 73.149 73.149 0 0 1 9.078 71.205 A 59.626 59.626 0 0 1 6.15 70.475 A 54.402 54.402 0 0 1 3.551 69.689 Q 1.531 69.019 0 68.3 Z M 67.8 95.6 L 58.8 95.6 L 58.8 22.4 L 65.8 22.4 L 67.4 33.6 L 64.9 31.8 A 24.741 24.741 0 0 1 70.349 25.738 A 23.006 23.006 0 0 1 72.55 24.2 A 18.278 18.278 0 0 1 78.496 21.899 Q 80.916 21.4 83.7 21.4 A 22.091 22.091 0 0 1 89.564 22.147 A 17.83 17.83 0 0 1 95.2 24.8 A 21.446 21.446 0 0 1 102.052 32.913 A 25.7 25.7 0 0 1 102.55 33.975 Q 105.1 39.75 105.1 46.9 Q 105.1 54.05 102.7 59.825 A 21.723 21.723 0 0 1 98.661 66.25 A 20.062 20.062 0 0 1 95.55 69 Q 90.8 72.4 83.7 72.4 Q 77.85 72.4 73.125 69.975 Q 68.4 67.55 66.3 62.7 L 67.8 60.9 L 67.8 95.6 Z M 116.5 33.8 L 115.2 26.5 A 20.838 20.838 0 0 1 118.628 24.399 Q 120.419 23.515 122.55 22.825 Q 126.95 21.4 131.8 21.4 A 28.933 28.933 0 0 1 135.779 21.657 Q 137.859 21.947 139.58 22.562 A 13.83 13.83 0 0 1 141.8 23.575 A 11.195 11.195 0 0 1 145.749 27.456 Q 146.694 28.969 147.35 30.9 A 27.385 27.385 0 0 1 148.346 34.878 Q 149.1 39.092 149.1 44.9 L 149.1 54.9 A 62.551 62.551 0 0 0 149.138 57.162 Q 149.212 59.182 149.425 60.675 A 8.467 8.467 0 0 0 149.73 62.044 Q 150.135 63.319 150.925 64.075 Q 152.1 65.2 154.7 65.2 L 155.6 65.2 L 154.2 72.4 L 153.5 72.4 A 35.927 35.927 0 0 1 151.033 72.321 Q 148.701 72.16 147.134 71.67 A 9.298 9.298 0 0 1 146.775 71.55 A 9.728 9.728 0 0 1 145.031 70.736 Q 143.946 70.082 143.22 69.189 A 6.131 6.131 0 0 1 143.15 69.1 Q 141.9 67.5 140.9 65.2 Q 138.15 68.4 134.4 70.4 A 17.07 17.07 0 0 1 128.001 72.298 A 21.072 21.072 0 0 1 125.9 72.4 A 18.963 18.963 0 0 1 121.887 71.994 A 14.678 14.678 0 0 1 117.95 70.55 Q 114.55 68.7 112.675 65.5 A 13.726 13.726 0 0 1 110.866 59.706 A 16.902 16.902 0 0 1 110.8 58.2 A 15.861 15.861 0 0 1 111.149 54.794 A 11.957 11.957 0 0 1 112.625 51.075 Q 114.45 48.1 117.525 46.125 Q 120.6 44.15 124.4 42.975 Q 128.2 41.8 132.275 41.275 A 70.822 70.822 0 0 1 138.205 40.755 A 61.797 61.797 0 0 1 140.1 40.7 A 27.716 27.716 0 0 0 139.949 37.685 Q 139.455 33.196 137.35 31.55 A 9.016 9.016 0 0 0 134.534 30.1 Q 132.366 29.4 129.4 29.4 A 20.303 20.303 0 0 0 126.002 29.7 A 26.072 26.072 0 0 0 123.525 30.25 A 16.645 16.645 0 0 0 120.965 31.197 Q 119.725 31.766 118.383 32.577 A 36.433 36.433 0 0 0 116.5 33.8 Z M 245.8 72.4 Q 238.1 72.4 232.675 68.975 Q 227.25 65.55 224.375 59.775 Q 221.5 54 221.5 46.9 A 30.305 30.305 0 0 1 222.568 38.739 A 26.5 26.5 0 0 1 224.375 34.025 Q 227.25 28.25 232.675 24.825 A 21.715 21.715 0 0 1 240.345 21.882 A 29.568 29.568 0 0 1 245.8 21.4 A 28.566 28.566 0 0 1 252.177 22.079 A 21.561 21.561 0 0 1 258.9 24.825 Q 264.35 28.25 267.225 34.025 Q 270.1 39.8 270.1 46.9 A 30.305 30.305 0 0 1 269.032 55.061 A 26.5 26.5 0 0 1 267.225 59.775 Q 264.35 65.55 258.9 68.975 Q 253.45 72.4 245.8 72.4 Z M 172.1 71.4 L 162.5 71.4 L 162.5 22.4 L 169.9 22.4 L 171 30.5 A 46.356 46.356 0 0 1 173.653 27.471 Q 174.963 26.11 176.23 25.063 A 21.199 21.199 0 0 1 178.175 23.625 Q 181.6 21.4 185.5 21.4 A 9.091 9.091 0 0 1 186.909 21.505 A 7.432 7.432 0 0 1 187.8 21.7 L 186.9 31.6 A 10.905 10.905 0 0 0 185.883 31.417 A 12.472 12.472 0 0 0 185.525 31.375 Q 184.8 31.3 183.9 31.3 A 15.29 15.29 0 0 0 177.606 32.597 A 14.902 14.902 0 0 0 176.725 33.025 A 18.762 18.762 0 0 0 174.783 34.192 Q 173.007 35.423 172.1 36.8 L 172.1 71.4 Z M 203.7 71.4 L 194.1 71.4 L 194.1 22.4 L 201.5 22.4 L 202.6 30.5 A 46.356 46.356 0 0 1 205.253 27.471 Q 206.563 26.11 207.83 25.063 A 21.199 21.199 0 0 1 209.775 23.625 Q 213.2 21.4 217.1 21.4 A 9.091 9.091 0 0 1 218.509 21.505 A 7.432 7.432 0 0 1 219.4 21.7 L 218.5 31.6 A 10.905 10.905 0 0 0 217.483 31.417 A 12.472 12.472 0 0 0 217.125 31.375 Q 216.4 31.3 215.5 31.3 A 15.29 15.29 0 0 0 209.206 32.597 A 14.902 14.902 0 0 0 208.325 33.025 A 18.762 18.762 0 0 0 206.383 34.192 Q 204.607 35.423 203.7 36.8 L 203.7 71.4 Z M 245.8 64.4 A 18.375 18.375 0 0 0 250.411 63.855 A 12.475 12.475 0 0 0 257 59.775 A 15.42 15.42 0 0 0 259.955 54.143 Q 260.9 50.961 260.9 46.9 A 28.201 28.201 0 0 0 260.48 41.876 Q 259.62 37.133 257 34.025 A 12.637 12.637 0 0 0 249.637 29.766 A 19.095 19.095 0 0 0 245.8 29.4 Q 238.55 29.4 234.625 34.025 A 15.42 15.42 0 0 0 231.628 39.733 Q 230.961 42.001 230.773 44.711 A 31.704 31.704 0 0 0 230.7 46.9 A 28.026 28.026 0 0 0 231.123 51.924 Q 231.636 54.741 232.775 56.98 A 14.344 14.344 0 0 0 234.625 59.775 A 12.753 12.753 0 0 0 242.183 64.074 A 19.083 19.083 0 0 0 245.8 64.4 Z M 82 64.4 Q 88.55 64.4 92.225 59.775 Q 95.288 55.92 95.798 49.546 A 33.201 33.201 0 0 0 95.9 46.9 Q 95.9 40.989 94.013 36.938 A 14.508 14.508 0 0 0 92.225 34.025 A 11.968 11.968 0 0 0 83.593 29.472 A 17.126 17.126 0 0 0 82 29.4 A 14.678 14.678 0 0 0 76.06 30.599 A 14.227 14.227 0 0 0 74.625 31.325 A 13.09 13.09 0 0 0 70.383 35.31 A 16.745 16.745 0 0 0 69.3 37.125 A 16.619 16.619 0 0 0 67.881 41.128 Q 67.3 43.72 67.3 46.9 A 31.153 31.153 0 0 0 67.536 50.857 Q 67.803 52.938 68.372 54.672 A 14.879 14.879 0 0 0 69.3 56.9 A 14.971 14.971 0 0 0 71.507 60.11 A 12.044 12.044 0 0 0 74.625 62.575 A 14.949 14.949 0 0 0 81.481 64.393 A 17.673 17.673 0 0 0 82 64.4 Z M 140.1 58.6 L 140.1 46.9 Q 132.95 47.15 128.525 48.3 Q 124.1 49.45 122.05 51.75 A 7.945 7.945 0 0 0 120.171 55.703 A 11.16 11.16 0 0 0 120 57.7 A 11.579 11.579 0 0 0 120.178 59.802 Q 120.389 60.946 120.853 61.832 A 5.178 5.178 0 0 0 122.125 63.425 A 7.449 7.449 0 0 0 125.442 64.99 A 10.575 10.575 0 0 0 127.6 65.2 A 14.561 14.561 0 0 0 134.258 63.565 A 17.07 17.07 0 0 0 134.575 63.4 Q 137.95 61.6 140.1 58.6 Z" vector-effect="non-scaling-stroke"/></g></svg>